<?xml version="1.0" encoding="UTF-8" standalone="no"?>
<svg
   xmlns:dc="http://purl.org/dc/elements/1.1/"
   xmlns:cc="http://creativecommons.org/ns#"
   xmlns:rdf="http://www.w3.org/1999/02/22-rdf-syntax-ns#"
   xmlns:svg="http://www.w3.org/2000/svg"
   xmlns="http://www.w3.org/2000/svg"
   xmlns:xlink="http://www.w3.org/1999/xlink"
   xmlns:sodipodi="http://sodipodi.sourceforge.net/DTD/sodipodi-0.dtd"
   xmlns:inkscape="http://www.inkscape.org/namespaces/inkscape"
   width="800"
   height="800"
   viewBox="0 0 211.66666 211.66667"
   version="1.1"
   id="svg8"
   inkscape:version="1.0.2-2 (e86c870879, 2021-01-15)"
   sodipodi:docname="logo_moneyflow_background.svg">
  <defs
     id="defs2">
    <linearGradient
       inkscape:collect="always"
       id="linearGradient869">
      <stop
         style="stop-color:#15c7a3;stop-opacity:1;"
         offset="0"
         id="stop865" />
      <stop
         style="stop-color:#11526b;stop-opacity:1"
         offset="1"
         id="stop867" />
    </linearGradient>
    <linearGradient
       inkscape:collect="always"
       xlink:href="#linearGradient869"
       id="linearGradient871"
       x1="67.889091"
       y1="182.98967"
       x2="118.31725"
       y2="176.33871"
       gradientUnits="userSpaceOnUse"
       gradientTransform="matrix(1.0545347,0,0,1.0545347,-3.5737613,-46.647292)" />
  </defs>
  <sodipodi:namedview
     id="base"
     pagecolor="#ffffff"
     bordercolor="#666666"
     borderopacity="1.0"
     inkscape:pageopacity="0.0"
     inkscape:pageshadow="2"
     inkscape:zoom="0.7"
     inkscape:cx="343.07503"
     inkscape:cy="480.23555"
     inkscape:document-units="px"
     inkscape:current-layer="layer1"
     inkscape:document-rotation="0"
     showgrid="false"
     units="px"
     inkscape:window-width="1512"
     inkscape:window-height="1041"
     inkscape:window-x="26"
     inkscape:window-y="0"
     inkscape:window-maximized="0" />
  <metadata
     id="metadata5">
    <rdf:RDF>
      <cc:Work
         rdf:about="">
        <dc:format>image/svg+xml</dc:format>
        <dc:type
           rdf:resource="http://purl.org/dc/dcmitype/StillImage" />
        <dc:title></dc:title>
      </cc:Work>
    </rdf:RDF>
  </metadata>
  <g
     inkscape:label="Layer 1"
     inkscape:groupmode="layer"
     id="layer1">
    <g
       id="g899"
       transform="translate(0.11488453,2.0450904)">
      <path
         style="fill:#10b1f8;fill-opacity:1;stroke:none;stroke-width:0.279012px;stroke-linecap:butt;stroke-linejoin:miter;stroke-opacity:1"
         d="M 75.906526,93.993358 C 15.320572,4.1810246 228.92899,24.151541 155.66865,147.26206 190.89295,72.283261 72.693016,27.257498 75.906526,93.993358 Z"
         id="path847"
         sodipodi:nodetypes="ccc" />
      <path
         style="fill:url(#linearGradient871);fill-opacity:1;stroke:none;stroke-width:0.279012px;stroke-linecap:butt;stroke-linejoin:miter;stroke-opacity:1"
         d="m 127.76131,124.54669 c -14.01712,13.99242 -38.668998,18.3469 -63.973529,10.56261 l 25.509696,20.32804 c 16.658383,-5.13154 35.096263,-7.86762 38.463833,-30.89065 z"
         id="path855"
         sodipodi:nodetypes="cccc" />
      <path
         style="fill:#ffffff;fill-opacity:1;stroke:none;stroke-width:0.279012px;stroke-linecap:butt;stroke-linejoin:miter;stroke-opacity:1"
         d="m 90.692538,116.97349 c 3.965817,2.79499 8.552414,4.49166 14.947082,2.98943 3.31224,-1.22519 4.84198,-6.22969 -0.39859,-8.76896 -7.327114,-1.99069 -14.729058,-3.5893 -17.936497,-8.96825 -5.393624,-7.758603 -2.499946,-15.627994 2.391532,-20.726638 1.278194,-1.449226 5.372472,-3.166061 9.366842,-3.387998 -0.618203,-2.192241 -0.541964,-4.384481 -0.09964,-6.576722 1.056823,-1.760672 8.182123,-1.605381 8.719123,0.04977 0.67616,2.075978 0.47507,4.151967 0.0996,6.227945 6.34602,1.051582 11.02318,3.049387 15.5948,6.277782 l -8.17109,7.971776 c -4.18668,-1.885803 -8.35069,-3.88499 -13.05379,-3.188712 -5.75629,1.151351 -5.602933,8.251143 0.49824,9.865077 6.87667,0.874357 10.20326,2.40789 14.34921,4.98237 9.1352,7.44655 5.80257,20.98567 -2.98942,25.5097 -1.64736,1.04595 -3.99565,1.49109 -6.27778,1.99294 0.25091,2.05938 0.11147,4.11875 -0.19929,6.17813 -0.25503,1.68779 -7.963934,1.92167 -8.270711,0 -0.477473,-2.05107 -0.567225,-4.01598 -0.199295,-5.87918 -7.39978,0.1176 -12.311117,-3.21033 -17.33862,-6.37743 z"
         id="path873"
         sodipodi:nodetypes="ccccccccccccccccccccc" />
      <path
         style="fill:#15c7a3;fill-opacity:1;stroke:none;stroke-width:0.279012px;stroke-linecap:butt;stroke-linejoin:miter;stroke-opacity:1"
         d="m 54.420939,65.55552 c -3.748693,14.878325 7.966335,36.26993 36.271599,51.41797 l -8.96825,8.17109 C 40.232374,122.02833 32.972374,84.40731 54.420939,65.55552 Z"
         id="path849"
         sodipodi:nodetypes="cccc" />
      <path
         style="fill:#15c7a3;fill-opacity:1;stroke:none;stroke-width:0.279012px;stroke-linecap:butt;stroke-linejoin:miter;stroke-opacity:1"
         d="M 115.20575,92.061682 C 157.7713,120.57198 88.769324,179.45816 64.983549,129.72834 55.114158,127.01906 46.794187,121.74004 40.271031,112.78831 75.791717,234.93395 217.92587,126.86045 123.37684,84.089906 Z"
         id="path853"
         sodipodi:nodetypes="ccccc" />
    </g>
  </g>
</svg>
